<svg xmlns="http://www.w3.org/2000/svg"
shape-rendering="geometricPrecision"
width="4000" height="4000" viewBox="0 0 1024 1024">
  <metadata>null</metadata>

<path d="
M 173.825 623.727
C 186.215 623.669 198.613 623.697 211.005 623.694
C 217.626 623.692 224.371 623.356 230.968 623.993
C 239.589 624.826 247.952 627.584 255.425 631.931
C 281.321 646.993 287.888 684.568 273.725 709.725
C 268.959 718.19 261.976 724.567 253.653 729.42
C 242.164 736.119 228.855 737.256 215.871 737.242
C 206.746 737.232 197.621 737.243 188.496 737.237
C 183.775 737.233 178.909 736.873 174.206 737.25
C 173.626 734.082 174.038 730.492 173.98 727.27
C 173.843 719.68 173.892 712.085 173.89 704.494
C 173.883 686.495 173.844 668.496 173.838 650.496
C 173.835 641.63 174.389 632.571 173.825 623.727 Z
M 195.897 643.777
C 196.13 659.514 196.058 675.255 196.089 690.996
C 196.106 699.716 196.494 708.518 196.183 717.227
C 198.125 717.764 200.959 717.257 202.999 717.256
C 207.665 717.254 212.332 717.292 216.999 717.295
C 227.062 717.3 237.262 716.661 245.654 710.422
C 262.788 697.683 262.765 668.889 249.014 653.879
C 238.979 642.926 224.038 643.658 210.502 643.586
C 207.529 643.57 204.555 643.58 201.583 643.535
C 199.772 643.508 197.651 643.263 195.897 643.777 Z"
opacity="1" fill="rgb(148,120,169)" fill-rule="evenodd" />
<path d="
M 296.924 708.084
C 297.833 704.616 298.749 701.43 300.699 698.374
C 304.412 692.558 310.626 689.549 317.188 688.236
C 326.185 686.435 335.369 686.813 344.5 686.789
C 347.498 686.781 350.789 687.142 353.752 686.672
C 353.939 684.871 353.858 682.902 353.511 681.121
C 351.17 669.11 334.373 669.184 325.082 671.33
C 322.829 671.85 320.626 672.589 318.415 673.256
C 316.2 673.923 313.648 674.85 311.726 676.148
C 310.846 676.743 309.917 678.226 308.754 678.09
C 307.57 677.172 307.529 675.111 307.064 673.765
C 306.144 671.094 305.218 668.327 304.131 665.722
C 303.65 664.568 302.514 663.023 302.476 661.809
C 309.073 657.19 316.887 654.547 324.758 653.161
C 330.848 652.088 336.973 651.909 343.136 652.381
C 347.467 652.713 351.843 653.479 355.917 655.032
C 358.547 656.034 361.047 657.307 363.362 658.914
C 370.06 663.564 374.166 671.535 375.089 679.578
C 375.671 684.655 375.361 689.858 375.437 694.96
C 375.583 704.639 375.65 714.319 375.683 724
C 375.698 728.216 375.041 733.025 375.751 737.175
C 371.009 737.104 366.242 737.265 361.495 737.255
C 359.922 737.251 356.99 737.89 355.656 737.146
C 355.553 734.934 355.611 732.708 355.408 730.501
C 355.345 729.82 355.576 728.887 355.221 728.284
C 353.332 729.358 352.164 731.396 350.449 732.72
C 346.828 735.514 342.322 737.508 337.875 738.547
C 324.361 741.703 306.187 738.362 299.332 724.913
C 298.038 722.375 297.268 719.651 296.836 716.844
C 296.394 713.976 296.412 710.94 296.924 708.084 Z
M 317.913 709.077
C 317.633 710.487 317.577 712 317.803 713.424
C 319.659 725.107 335.687 725.566 344.266 721.73
C 345.848 721.023 347.378 720.177 348.81 719.201
C 355.392 714.712 353.777 707.407 353.884 700.541
C 350.687 700.191 347.343 700.431 344.115 700.418
C 335.127 700.382 321.463 698.424 317.913 709.077 Z"
opacity="1" fill="rgb(148,121,170)" fill-rule="evenodd" />
<path d="
M 362.936 323.122
C 363.12 321.836 362.879 320.524 363.05 319.244
C 366.029 316.275 369.386 313.676 372.433 310.773
C 384.895 298.903 397.235 286.816 409.344 274.583
C 414.352 269.524 419.45 264.586 424.546 259.604
C 426.026 258.157 427.506 256.708 428.949 255.223
C 429.766 254.383 430.49 253.253 431.564 252.737
C 437.95 252.214 444.593 252.751 451.003 252.761
C 463.837 252.78 476.67 252.752 489.503 252.752
C 494.504 252.752 499.505 252.737 504.505 252.749
C 505.86 252.753 509.076 252.093 510.123 252.811
C 510.711 260.494 510.49 268.295 510.435 276.001
C 510.413 279.09 511.106 283.302 510.245 286.25
C 509.354 287.043 508.392 288.067 507.248 288.494
C 505.327 289.211 502.737 287.552 502.347 285.594
C 501.932 283.507 502.203 281.123 502.204 279
C 502.206 275 502.234 271 502.237 267
C 502.238 265.414 502.838 262.366 502.244 260.939
C 497.231 260.514 492.029 260.885 486.997 260.897
C 477.664 260.921 468.332 260.925 458.999 260.941
C 454.666 260.949 450.333 260.953 445.999 260.939
C 443.803 260.931 441.278 260.456 439.196 261.186
C 444.034 270.645 448.386 280.41 452.822 290.065
C 453.942 292.501 455.053 294.937 456.227 297.347
C 456.582 298.075 457.613 299.637 457.422 300.434
C 455.404 301.902 452.954 302.644 450.907 304.052
C 450.212 303.729 449.725 302.043 449.368 301.328
C 448.093 298.78 446.904 296.173 445.695 293.593
C 442.581 286.951 439.407 280.338 436.426 273.636
C 434.97 270.361 433.912 266.046 431.596 263.269
C 419.765 275.315 407.759 287.238 395.703 299.07
C 389.009 305.64 382.105 312.118 375.726 318.989
C 376.021 319.894 377.4 320.564 378.209 321.042
C 380.519 322.41 382.937 323.599 385.311 324.851
C 390.932 327.815 396.493 330.899 402.13 333.831
C 405.666 335.671 409.708 337.36 412.764 339.961
C 411.818 342.05 410.766 344.512 409.268 346.274
C 408.468 346.558 407.077 345.482 406.397 345.09
C 404.158 343.801 401.872 342.588 399.589 341.379
C 393.006 337.893 386.271 334.657 379.741 331.079
C 377.049 329.604 373.624 326.74 370.462 326.763
C 371.015 340.659 370.765 354.594 370.744 368.5
C 370.734 375.311 369.798 382.972 371.166 389.66
C 376.815 390.036 382.66 389.478 388.332 389.509
C 390.369 389.519 393.145 389.118 395.071 389.75
C 395.585 391.222 396.936 392.29 397.662 393.657
C 397.524 395.032 396.211 396.718 395.251 397.658
C 389.799 399.08 383.103 398.158 377.505 398.102
C 375.405 398.081 372.803 397.618 370.792 398.244
C 370.425 419.558 370.465 440.969 370.682 462.283
C 371.111 462.691 372.4 461.568 372.856 461.304
C 375.12 459.994 377.475 458.839 379.777 457.599
C 386.326 454.071 393.072 450.917 399.698 447.538
C 402.457 446.13 405.879 443.575 408.92 443.073
C 409.861 444.922 413.053 447.467 412.874 449.691
C 412.298 450.63 410.837 451.168 409.895 451.661
C 407.423 452.954 404.938 454.223 402.463 455.509
C 393.451 460.191 383.941 464.343 375.232 469.554
C 375.114 470.822 377.583 472.654 378.497 473.512
C 382.076 476.871 385.466 480.417 388.948 483.875
C 403.209 498.037 417.205 512.484 431.244 526.861
C 431.521 526.953 432.128 524.914 432.257 524.617
C 433.338 522.134 434.42 519.653 435.569 517.202
C 440.389 506.922 445.366 496.685 450.061 486.353
C 452.151 485.952 455.65 488.573 457.316 489.695
C 457.316 490.946 456.086 492.562 455.536 493.663
C 454.244 496.253 453.112 498.923 451.851 501.53
C 447.38 510.77 442.73 520.086 438.939 529.621
C 450.051 530.151 461.37 529.413 472.504 529.398
C 482.353 529.385 492.569 530.141 502.378 529.288
C 502.623 523.55 502.389 517.744 502.368 511.997
C 502.36 509.694 501.832 506.612 502.566 504.403
C 503.95 500.24 508.413 502.289 510.552 504.229
C 511.11 507.432 510.759 510.969 510.748 514.214
C 510.723 521.936 510.164 529.96 510.746 537.649
C 493.528 538.153 476.229 537.536 459.003 537.557
C 452.833 537.565 446.666 537.646 440.497 537.707
C 437.54 537.735 434.272 538.196 431.351 537.777
C 428.751 535.984 426.507 532.787 424.285 530.513
C 419.381 525.493 414.383 520.562 409.464 515.555
C 394.302 500.124 379.169 484.331 363.103 469.841
C 362.571 468.938 362.938 467.529 362.925 466.499
C 362.892 463.832 362.827 461.167 362.825 458.499
C 362.818 448.832 362.798 439.166 362.832 429.498
C 362.919 404.832 362.743 380.165 362.812 355.498
C 362.842 344.738 362.478 333.87 362.936 323.122 Z"
opacity="1" fill="rgb(137,114,161)" fill-rule="evenodd" />
<path d="
M 389.203 653.238
C 394.457 653.084 399.748 653.101 405.008 653.135
C 407.147 653.149 409.933 652.705 411.978 653.27
C 417.48 664.179 421.163 676.255 425.622 687.622
C 428.406 694.72 431.296 701.782 434.011 708.905
C 434.984 711.458 436.282 713.947 437.035 716.568
C 437.818 716.38 438.23 713.717 438.507 713.007
C 440.029 709.111 441.491 705.204 442.921 701.269
C 446.935 690.231 450.987 679.21 454.919 668.141
C 456.667 663.22 458.937 658.243 460.248 653.198
C 467.531 653.476 474.895 652.797 482.164 653.293
C 482.033 654.688 480.969 656.333 480.446 657.643
C 479.125 660.95 477.815 664.259 476.501 667.569
C 472.273 678.217 467.966 688.835 463.766 699.493
C 457.737 714.796 452.158 730.386 445.494 745.425
C 443.265 750.454 441.183 755.692 437.756 760.057
C 432.381 766.904 422.9 770.794 414.271 770.393
C 408.901 770.143 403.365 768.529 398.569 766.14
C 396.723 765.22 395.158 763.741 393.294 762.911
C 393.105 762.014 394.621 760.009 395.065 759.145
C 396.965 755.447 398.674 751.665 400.92 748.166
C 402.357 747.959 404.892 750.055 406.217 750.686
C 409.955 752.463 416.275 753.224 419.716 750.462
C 422.545 748.193 425.861 744.33 426.059 740.478
C 426.152 738.664 424.73 736.53 424.054 734.907
C 422.312 730.727 420.777 726.443 418.96 722.293
C 408.918 699.361 399.953 675.856 389.203 653.238 Z"
opacity="1" fill="rgb(149,122,170)" fill-rule="evenodd" />
<path d="
M 457.39 352.441
C 459.262 350.353 461.188 348.308 463.056 346.22
C 463.927 346.221 465.01 347.751 465.633 348.37
C 468.051 350.778 470.525 353.132 472.95 355.533
C 478.9 361.423 484.956 367.207 490.883 373.12
C 494.278 376.507 497.463 380.196 500.992 383.436
C 501.359 382.852 500.793 380.319 500.777 379.5
C 500.71 376.003 500.763 372.503 500.763 369.006
C 500.763 358.672 500.709 348.338 500.698 338.004
C 500.696 335.004 500.709 332.004 500.699 329.005
C 500.695 327.568 500.358 325.741 500.771 324.374
C 503.902 324.46 507.121 324.086 510.235 324.53
C 510.519 345.699 510.78 366.963 510.675 388.119
C 528.757 387.623 546.922 388.076 565.012 388.12
C 586.533 388.173 608.06 387.924 629.579 388.201
C 630.258 391.493 629.785 394.835 629.799 398.156
C 619.403 398.547 608.906 398.194 598.501 398.169
C 579.169 398.122 559.837 398.107 540.504 398.093
C 531.43 398.087 522.33 398.214 513.261 397.971
C 510.843 397.906 508.42 397.971 506.002 397.954
C 505.134 397.947 503.958 398.182 503.14 397.847
C 501.602 397.217 500.146 395.106 499.007 393.94
C 496.31 391.178 493.499 388.53 490.693 385.881
C 483.237 378.841 475.965 371.602 468.571 364.497
C 466.009 362.035 463.472 359.549 460.938 357.058
C 459.618 355.759 458.02 354.545 457.01 352.983
C 457.136 352.802 457.263 352.621 457.39 352.441 Z"
opacity="1" fill="rgb(42,18,52)" fill-rule="evenodd" />
<path d="
M 499.091 623.693
C 507.366 623.216 515.718 623.451 524.005 623.441
C 537.171 623.427 550.337 623.395 563.502 623.389
C 568.67 623.387 573.836 623.34 579.004 623.359
C 580.114 623.364 583.702 622.816 584.352 623.623
C 584.594 630.034 584.072 636.51 584.346 642.899
C 570.398 642.87 556.448 642.916 542.499 642.907
C 535.2 642.902 527.535 642.236 520.281 643.044
C 519.938 646.96 520.301 651.066 520.31 655
C 520.323 660.977 520.102 667.031 520.447 672.999
C 525.537 673.422 530.804 673.047 535.913 673.035
C 550.013 673.001 564.243 672.385 578.33 673.083
C 578.008 676.723 578.369 680.613 578.404 684.277
C 578.427 686.724 578.082 689.349 578.305 691.769
C 564.878 691.963 551.428 691.703 537.997 691.729
C 532.105 691.741 526.142 691.492 520.264 691.881
C 520.138 702.414 520.298 712.965 520.32 723.5
C 520.326 726.667 520.344 729.834 520.355 733.001
C 520.36 734.194 520.652 735.958 520.314 737.088
C 513.455 737.483 506.174 737.438 499.314 737.096
C 499.555 729.92 499.262 722.682 499.241 715.5
C 499.2 701.501 499.214 687.501 499.18 673.502
C 499.154 662.668 499.127 651.834 499.127 641
C 499.127 635.26 499.419 629.418 499.091 623.693 Z"
opacity="1" fill="rgb(146,118,166)" fill-rule="evenodd" />
<path d="
M 519.862 304.769
C 523.567 304.477 527.408 304.95 531.082 304.49
C 531.504 303.693 531.187 301.913 531.182 301.006
C 531.168 298.173 531.175 295.34 531.186 292.507
C 531.222 283.342 531.22 274.174 531.164 265.01
C 531.147 262.252 531.128 259.494 531.106 256.736
C 531.096 255.465 530.906 253.938 531.375 252.746
C 564.202 252.018 597.165 252.638 630.009 252.646
C 639.009 252.648 648.008 252.699 657.008 252.694
C 659.508 252.693 662.009 252.718 664.509 252.716
C 665.373 252.716 666.67 252.463 667.425 252.884
C 666.634 260.733 667.43 269.104 667.46 277.003
C 667.519 292.255 667.43 307.505 667.541 322.756
C 667.665 339.669 667.653 356.584 667.677 373.497
C 667.689 381.492 667.098 389.739 667.69 397.706
C 662.653 397.49 657.54 397.724 652.495 397.734
C 650.47 397.738 648.118 398.164 646.15 397.682
C 646.12 395.202 645.655 392.266 646.317 389.86
C 647.278 389.021 648.42 388.989 649.642 388.957
C 652.216 388.889 654.803 388.991 657.384 388.934
C 658.075 388.919 659.102 389.137 659.742 388.892
C 659.36 383.325 659.736 377.589 659.733 372.002
C 659.732 369.787 660.163 367.039 659.653 364.889
C 648.94 364.627 638.212 364.788 627.496 364.782
C 619.619 364.779 611.687 364.51 603.821 364.86
C 603.878 369.097 603.803 373.363 603.754 377.6
C 601.1 377.844 598.387 377.534 595.724 377.604
C 595.55 374.754 595.615 371.86 595.63 369.003
C 595.637 367.702 595.412 366.112 595.664 364.857
C 576.885 364.492 558.072 364.72 539.293 364.775
C 539.6 369.023 538.687 373.54 539.236 377.744
C 536.675 377.764 534.116 377.71 531.556 377.782
C 531.055 377.182 531.37 375.306 531.349 374.501
C 531.267 371.368 531.14 368.166 531.307 365.039
C 530.497 364.59 528.929 364.886 528.004 364.884
C 525.339 364.877 522.645 364.739 519.984 364.88
C 519.671 364.162 519.864 363.144 519.876 362.376
C 519.905 360.518 519.872 358.664 519.918 356.807
C 523.601 356.707 527.345 356.666 531.021 356.483
C 531.483 355.966 531.172 354.201 531.17 353.504
C 531.163 351.005 531.15 348.506 531.154 346.006
C 531.165 338.506 531.136 331.006 531.114 323.506
C 531.104 320.222 531.794 316.129 531.144 312.935
C 527.574 312.548 523.771 312.748 520.178 312.8
C 519.168 310.781 520.025 307.043 519.862 304.769 Z
M 539.205 260.727
C 539.002 275.288 539.553 289.877 539.255 304.436
C 543.134 305.06 547.567 304.458 551.504 304.447
C 559.837 304.422 568.169 304.434 576.501 304.395
C 580.834 304.374 585.168 304.345 589.501 304.358
C 591.384 304.364 593.891 304.776 595.705 304.31
C 595.261 295.093 595.632 285.739 595.641 276.507
C 595.646 271.509 594.865 265.727 595.727 260.816
C 582.817 260.808 569.907 260.716 556.997 260.719
C 551.097 260.721 545.089 260.366 539.205 260.727 Z
M 539.298 312.676
C 538.96 327.337 539.584 342.035 539.25 356.692
C 540.802 357.115 542.879 356.746 544.501 356.752
C 548.503 356.766 552.504 356.678 556.506 356.67
C 569.551 356.645 582.641 356.396 595.68 356.703
C 595.195 352.422 595.644 347.821 595.635 343.506
C 595.613 333.27 595.781 323.008 595.589 312.777
C 592.967 312.419 590.145 312.699 587.499 312.685
C 582.167 312.658 576.835 312.631 571.503 312.606
C 564.336 312.573 557.169 312.569 550.002 312.59
C 546.438 312.601 542.843 312.339 539.298 312.676 Z
M 603.524 261.626
C 603.279 264.704 603.596 267.901 603.601 270.994
C 603.613 277.828 603.638 284.662 603.625 291.496
C 603.619 294.497 603.651 297.497 603.658 300.498
C 603.661 301.683 603.385 303.425 603.855 304.504
C 607.284 304.156 610.84 304.58 614.287 304.502
C 624.186 304.279 634.1 304.45 644.001 304.393
C 647.669 304.372 651.337 304.352 655.004 304.314
C 656.288 304.301 658.289 304.637 659.481 304.197
C 660.09 298.961 659.55 293.196 659.538 287.909
C 659.518 278.866 659.756 269.778 659.552 260.752
C 641.06 260.023 622.427 260.794 603.923 260.683
C 603.475 261.302 603.58 260.977 603.524 261.626 Z
M 603.487 313.621
C 603.05 317.625 603.586 321.958 603.604 325.996
C 603.649 336.196 604.027 346.505 603.733 356.691
C 605.639 357.094 608.037 356.723 610.003 356.726
C 614.336 356.732 618.669 356.742 623.002 356.721
C 635.223 356.665 647.546 357.131 659.754 356.647
C 660.085 355.397 659.699 353.613 659.683 352.309
C 659.648 349.376 659.668 346.441 659.661 343.507
C 659.636 333.223 659.542 322.922 659.465 312.65
C 647.024 312.107 634.455 312.516 622 312.55
C 617.982 312.56 613.965 312.603 609.948 312.543
C 607.84 312.512 605.694 312.128 603.602 312.556
C 603.532 313.359 603.576 313.005 603.487 313.621 Z"
opacity="1" fill="rgb(89,58,99)" fill-rule="evenodd" />
<path d="
M 519.647 426.142
C 523.473 425.847 527.311 426.143 531.13 425.93
C 531.58 425.455 531.196 423.176 531.191 422.508
C 531.161 419.071 531.245 415.619 531.116 412.186
C 533.83 412.046 536.541 412.276 539.24 412.093
C 539.342 416.775 539.627 421.618 539.317 426.291
C 546.481 425.789 553.826 426.159 561.012 426.155
C 572.563 426.15 584.133 425.972 595.678 426.091
C 595.036 421.859 595.436 416.867 595.527 412.577
C 596.102 412.015 596.744 412.126 597.515 412.077
C 599.084 411.978 602.111 411.65 603.502 412.341
C 603.306 416.884 604.035 421.543 603.823 426.116
C 605.364 426.564 607.618 426.174 609.238 426.168
C 612.996 426.154 616.753 426.137 620.511 426.134
C 633.447 426.125 646.528 425.588 659.448 426.091
C 659.792 424.678 659.574 422.955 659.576 421.498
C 659.579 418.386 659.59 415.273 659.598 412.164
C 662.215 412.025 665.015 411.768 667.617 412.155
C 667.166 420.699 667.655 429.434 667.671 438
C 667.707 456 667.743 474.001 667.699 492.001
C 667.674 502.334 667.717 512.669 667.729 523.002
C 667.734 526.438 667.702 529.874 667.73 533.309
C 667.741 534.696 667.467 536.43 667.72 537.767
C 638.82 537.496 609.903 537.752 580.999 537.766
C 570.333 537.771 559.667 537.804 549 537.847
C 543.172 537.871 537.183 537.534 531.378 538.026
C 530.272 530.456 531.176 522.155 531.183 514.508
C 531.19 508.072 531.205 501.636 531.23 495.2
C 531.242 492.381 530.946 489.416 531.21 486.618
C 527.449 486.76 523.621 486.183 519.875 486.526
C 519.749 483.794 519.929 481.053 519.793 478.319
C 523.217 478.417 527.77 479.052 531.099 478.303
C 530.919 468.726 531.135 459.089 531.207 449.508
C 531.244 444.627 530.709 439.367 531.283 434.535
C 527.513 434.636 523.709 434.239 519.931 434.474
C 519.453 433.65 519.683 432.506 519.69 431.573
C 519.704 429.763 519.689 427.951 519.647 426.142 Z
M 539.229 434.191
C 539.4 444.955 539.21 455.733 539.21 466.499
C 539.21 469.329 539.215 472.162 539.178 474.992
C 539.165 475.959 538.844 477.697 539.362 478.492
C 546.424 477.853 553.9 478.508 561.007 478.504
C 572.575 478.499 584.175 478.119 595.736 478.592
C 595.381 477.369 595.664 475.77 595.669 474.504
C 595.681 471.504 595.658 468.505 595.646 465.506
C 595.603 455.145 595.866 444.756 595.629 434.401
C 587.137 433.848 578.505 434.268 569.997 434.241
C 559.77 434.208 549.443 433.812 539.229 434.191 Z
M 539.33 486.416
C 539.476 493.598 539.244 500.814 539.253 508.001
C 539.263 515.191 539.53 522.453 539.257 529.632
C 543.115 529.279 547.113 529.533 550.99 529.502
C 559.329 529.435 567.667 529.441 576.007 529.439
C 580.565 529.438 585.125 529.401 589.682 529.482
C 591.581 529.516 593.844 529.187 595.69 529.622
C 595.057 526.16 595.673 522.033 595.673 518.504
C 595.673 511.004 595.661 503.504 595.688 496.003
C 595.699 492.996 596.293 489.327 595.701 486.391
C 576.957 486.552 558.047 485.524 539.33 486.416 Z
M 603.702 434.18
C 603.413 444.934 603.729 455.739 603.711 466.5
C 603.706 469.333 603.678 472.166 603.693 474.999
C 603.698 475.954 603.375 477.691 603.872 478.474
C 608.46 477.936 613.379 478.423 618.006 478.404
C 627.673 478.365 637.34 478.358 647.007 478.384
C 651.118 478.395 655.664 478.989 659.727 478.469
C 660.134 468.031 659.66 457.46 659.642 447.005
C 659.635 442.85 659.18 438.324 659.747 434.211
C 655.033 434.502 650.222 434.215 645.498 434.212
C 635.664 434.208 625.831 434.169 615.998 434.208
C 611.94 434.223 607.736 433.835 603.702 434.18 Z
M 603.804 486.4
C 603.053 500.779 604.594 515.294 603.735 529.663
C 616.643 529.214 629.59 529.394 642.507 529.416
C 648.033 529.425 654.068 530.133 659.538 529.494
C 659.335 520.015 659.58 510.488 659.615 501.003
C 659.632 496.311 658.917 490.899 659.735 486.289
C 641.143 487.275 622.378 485.281 603.804 486.4 Z"
opacity="1" fill="rgb(26,7,35)" fill-rule="evenodd" />
<path d="
M 532.442 715.574
C 532.714 713.467 535.836 711.974 537.466 711.009
C 542.955 707.762 549.234 705.726 555.443 704.422
C 568.536 701.671 581.722 702.796 594.856 704.59
C 606.883 706.234 619.065 708.48 631.226 706.77
C 638.724 705.715 647.679 703.328 652.633 697.137
C 655.781 693.203 656.484 687.48 660.445 684.183
C 670.41 675.886 683.245 673.737 695.931 673.788
C 700.724 673.808 705.447 674.267 710.157 675.14
C 712.06 675.492 714.776 676.011 716.143 677.441
C 716.39 678.121 716.621 679.033 716.028 679.578
C 714.458 680.127 712.64 679.904 711.007 679.879
C 708.033 679.834 705.059 679.741 702.086 679.633
C 694.405 679.355 686.636 679.759 679.439 682.771
C 674.953 684.648 670.065 687.304 667.204 691.384
C 664.619 695.069 663.441 699.419 661.074 703.176
C 659.377 705.868 656.678 708.262 653.96 709.896
C 645.736 714.84 635.439 715.981 626.043 715.933
C 613.672 715.871 601.651 713.449 589.473 711.576
C 584.789 710.856 580.054 710.598 575.37 709.991
C 567.385 708.956 557.83 710.06 550.102 712.179
C 547.237 712.965 544.617 714.207 541.836 715.175
C 539.727 715.909 537.57 717.844 535.419 718.228
C 533.636 718.546 532.433 717.268 532.442 715.574 Z"
opacity="1" fill="rgb(34,9,38)" fill-rule="evenodd" />
<path d="
M 534.755 726.94
C 538.001 723.231 543.238 721.166 547.821 719.682
C 558.107 716.352 568.692 715.459 579.393 717.049
C 583.176 717.611 587.293 718.433 590.796 719.995
C 591.954 720.511 594.055 721.348 594.043 722.889
C 594.025 725.407 591.15 725.912 589.239 725.582
C 587.412 725.267 585.726 724.404 583.933 723.958
C 579.535 722.866 574.887 722.137 570.357 722.099
C 563.048 722.038 555.821 722.851 548.856 725.19
C 546.345 726.033 543.812 727.158 541.393 728.242
C 539.315 729.175 538 730.127 535.619 729.911
C 534.795 729.13 534.484 728.034 534.755 726.94 Z"
opacity="1" fill="rgb(34,7,36)" fill-rule="evenodd" />
<path d="
M 548.894 734.563
C 549.753 731.388 552.749 730.51 555.583 729.651
C 562.132 727.667 569.235 727.446 575.916 728.857
C 578.486 729.4 584.7 730.683 584.087 734.393
C 582.644 737.767 578.479 735.212 576.094 734.756
C 567.751 733.161 560.721 734.386 552.892 737.184
C 551.168 737.801 549.456 736.913 548.858 735.173
C 548.87 734.969 548.882 734.766 548.894 734.563 Z"
opacity="1" fill="rgb(28,5,32)" fill-rule="evenodd" />
<path d="
M 600.863 621.587
C 600.899 621.345 600.935 621.103 600.97 620.862
C 607.739 620.574 614.538 621.032 621.306 620.76
C 620.915 626.606 621.303 632.632 621.318 638.496
C 621.347 649.832 621.342 661.169 621.382 672.505
C 621.407 679.339 621.407 686.172 621.411 693.006
C 621.413 695.988 620.896 699.528 621.389 702.445
C 619.58 702.879 616.981 702.279 615.122 702.113
C 610.523 701.702 605.731 701.365 601.238 700.268
C 600.332 699.341 600.854 696.164 600.853 694.904
C 600.847 690.103 600.877 685.303 600.869 680.502
C 600.848 667.503 600.84 654.504 600.832 641.505
C 600.828 634.958 600.248 628.099 600.863 621.587 Z"
opacity="1" fill="rgb(34,11,35)" fill-rule="evenodd" />
<path d="
M 600.955 730.105
C 601.041 729.522 601.014 729.866 600.973 729.073
C 602.245 728.168 604.677 729.485 606.047 729.875
C 609.496 730.856 612.971 731.69 616.484 732.402
C 617.924 732.694 620.149 732.715 621.39 733.481
C 621.312 734.044 621.528 736.743 621.036 736.917
C 614.351 736.367 607.682 736.58 600.988 736.439
C 600.824 734.351 600.861 732.198 600.955 730.105 Z"
opacity="1" fill="rgb(29,8,32)" fill-rule="evenodd" />
<path d="
M 602.453 721.074
C 602.657 720.446 602.523 720.758 602.866 720.141
C 604.004 718.782 605.285 719.077 606.882 719.413
C 609.464 719.957 612.111 720.315 614.723 720.69
C 625.385 722.222 636.264 723.14 646.962 721.356
C 655.642 719.908 664.719 717.063 671.038 710.606
C 673.835 707.749 675.583 704.184 677.93 700.991
C 680.464 697.544 683.971 694.504 687.651 692.351
C 704.031 682.768 724.077 685.459 742.081 686.45
C 747.008 686.722 751.915 687.092 756.842 686.512
C 760.632 686.066 764.3 684.94 768.061 684.454
C 770.049 684.197 772.425 685.632 772.065 687.91
C 771.589 689.284 770.005 690.332 768.708 690.847
C 765.647 692.06 762.055 692.54 758.813 693.024
C 748.273 694.598 737.523 692.46 727.003 691.975
C 723.287 691.803 719.524 692.103 715.81 692.246
C 705.809 692.631 694.253 695.532 687.163 703.039
C 684.489 705.871 683.067 709.744 680.924 712.962
C 678.763 716.208 675.838 718.829 672.644 721.032
C 660.423 729.462 645.556 729.944 631.311 729.262
C 624.068 728.916 616.644 727.659 609.682 725.64
C 607.098 724.89 603.813 724.642 602.484 721.97
C 602.42 721.358 602.428 721.657 602.453 721.074 Z"
opacity="1" fill="rgb(34,7,38)" fill-rule="evenodd" />
<path d="
M 636.428 642.56
C 637.757 639.9 640.115 640.995 642.428 641.519
C 647.651 642.702 653.016 643.291 658.302 641.944
C 671.906 638.475 683.374 629.894 697.727 629.146
C 701.853 628.931 707.083 629.067 710.849 630.985
C 713.712 632.444 714.836 634.652 711.686 636.668
C 709.853 637.203 707.483 636.096 705.634 635.846
C 701.875 635.338 697.766 635.151 694.022 635.883
C 687.468 637.164 681.733 640.802 675.718 643.491
C 667.781 647.041 659.212 649.491 650.447 648.933
C 646.914 648.708 643.231 648.318 639.885 647.091
C 638.503 646.584 637.046 646.162 636.291 644.805
C 636.089 644.03 636.226 643.324 636.428 642.56 Z"
opacity="1" fill="rgb(31,10,35)" fill-rule="evenodd" />
<path d="
M 694.937 653.735
C 694.453 654.552 693.244 654.279 692.488 654.911
C 691.368 655.846 691.301 657.354 691.213 658.697
C 692.011 659.074 692.475 657.94 692.824 657.406
C 693.859 655.823 695.605 654.775 696.82 653.324
C 701.839 648.562 707.11 645.084 713.077 641.639
C 718.367 638.585 724.427 636.716 730.384 635.492
C 745.006 632.487 759.898 633.345 774.401 636.661
C 789.2 640.046 803.479 645.298 818.563 647.434
C 827.367 648.68 836.729 648.241 845.436 646.57
C 849.165 645.853 853.175 643.156 856.959 643.302
C 857.804 644.176 859.253 645.194 859.366 646.48
C 858.795 649.624 853.611 650.906 851.07 651.948
C 841.979 655.679 831.068 656.031 821.395 655.259
C 812.636 654.561 803.708 653.119 795.144 651.127
C 779.483 647.485 764.002 642.085 747.764 641.765
C 742.72 641.665 737.884 642.392 732.938 643.272
C 725.411 644.611 717.871 647.398 711.374 651.45
C 709.417 652.67 705.887 654.816 705.127 657.093
C 713.421 658.504 721.532 660.896 729.698 662.927
C 748.52 667.609 768.485 672.058 787.997 671.521
C 796.504 671.287 804.991 670.712 813.349 668.996
C 818.347 667.97 823.043 666.039 827.959 664.825
C 830.86 664.109 834.401 665.675 835.239 668.812
C 835.917 671.347 832.735 673.526 830.936 674.583
C 825.217 677.944 817.703 679.042 811.253 680.141
C 802.691 681.599 793.645 681.489 785.009 681.013
C 766.638 680 748.651 676.465 730.695 672.573
C 709.228 667.92 685.211 662.912 664.445 672.743
C 659.223 675.214 654.258 679.057 651.386 684.145
C 649.567 687.37 649.033 691.175 646.563 694.09
C 645.638 695.182 644.42 695.87 643.226 696.627
C 641.88 697.48 640.745 698.487 639.063 698.257
C 638.798 696.774 639.167 695.256 639.275 693.767
C 639.494 690.726 639.81 687.685 640.529 684.715
C 641.368 681.247 642.237 677.698 643.94 674.532
C 651.059 661.296 664.624 652.335 679.765 651.796
C 684.176 651.639 688.644 651.703 692.743 653.489
C 693.51 653.746 694.147 653.732 694.937 653.735 Z"
opacity="1" fill="rgb(35,10,37)" fill-rule="evenodd" />
<path d="
M 659.68 732.975
C 664.736 730.977 669.926 729.69 674.594 726.783
C 677.462 724.997 679.389 722.222 682.083 720.31
C 683.008 719.654 684.406 719.892 685.482 719.778
C 687.588 719.556 689.732 719.153 691.68 718.301
C 697.749 715.647 701.416 711.271 703.484 704.992
C 704.095 703.138 704.006 701.094 704.649 699.302
C 706.084 698.024 708.258 697.866 710.1 697.646
C 714.626 697.105 720.212 696.104 724.697 697.126
C 725.799 702.278 723.805 708.729 721.942 713.475
C 714.682 731.976 693.653 741.355 674.641 738.151
C 669.952 737.361 663.397 736.168 659.68 732.975 Z"
opacity="1" fill="rgb(33,9,38)" fill-rule="evenodd" />
<path d="
M 723.982 654.114
C 724.403 651.512 726.38 650.778 728.712 650.303
C 731.729 649.688 734.766 649.322 737.848 649.282
C 743.432 649.209 749.371 650.267 754.609 652.241
C 758.055 653.539 761.401 655.166 764.948 656.211
C 769.719 657.617 774.735 658.199 779.694 658.342
C 784.081 658.469 788.341 658.064 792.66 657.312
C 794.067 657.068 796.705 656.305 797.936 657.185
C 798.598 658.227 799.487 659.518 799.217 660.802
C 798.258 662.077 796.444 662.521 794.969 662.863
C 791.828 663.593 788.706 664.066 785.497 664.413
C 777.337 665.295 768.665 664.847 760.819 662.255
C 754.634 660.211 748.897 656.693 742.434 655.5
C 739.025 654.871 735.45 654.879 732.029 655.439
C 730.506 655.689 729.153 656.739 727.601 656.737
C 725.873 656.735 724.29 655.948 723.982 654.114 Z"
opacity="1" fill="rgb(35,8,36)" fill-rule="evenodd" />
<path d="
M 738.668 698.726
C 740.854 698.26 743.29 698.716 745.508 698.794
C 749.566 698.938 753.668 698.892 757.724 698.761
C 759.547 702.452 760.744 706.799 762.1 710.699
C 762.658 712.304 763.061 714.457 764.054 715.82
C 767.259 707.291 770.554 698.97 774.408 690.694
C 775.231 688.929 775.496 686.979 776.436 685.264
C 783.556 685.286 790.647 685.803 797.781 685.652
C 799.911 685.607 802.035 685.555 804.16 685.393
C 805.026 685.326 806.183 685 806.977 685.376
C 807.653 687.682 808.801 689.969 809.665 692.231
C 812.591 699.881 815.633 707.675 818.072 715.485
C 818.691 715.429 818.728 714.086 818.893 713.591
C 819.626 711.39 820.582 709.213 821.451 707.061
C 824.972 698.339 827.587 689.044 831.426 680.493
C 835.15 676.283 841.36 674.937 840.373 667.986
C 840.175 666.588 839.678 665.172 839.263 663.826
C 843.19 663.548 847.157 663.741 851.092 663.694
C 852.741 663.674 854.563 663.848 856.163 663.446
C 856.229 663.438 855.293 665.822 855.131 666.18
C 854.37 667.863 853.76 669.653 853.132 671.392
C 851.157 676.859 848.873 682.22 846.807 687.654
C 840.525 704.175 833.569 720.56 827.759 737.247
C 825.256 737.796 822.066 737.256 819.495 737.246
C 815.941 737.231 811.696 737.899 808.225 737.222
C 804.005 725.517 799.673 713.845 795.321 702.184
C 794.273 699.376 793.202 696.581 792.212 693.751
C 791.89 692.83 791.675 691.369 790.598 691.318
C 790.07 693.592 788.964 695.788 788.156 697.976
C 786.422 702.669 784.634 707.34 782.807 711.996
C 779.525 720.361 776.738 728.957 773.269 737.242
C 766.928 737.901 760.103 737.204 753.717 737.213
C 750.826 732.667 749.299 726.592 747.359 721.573
C 744.453 714.05 740.76 706.501 738.668 698.726 Z"
opacity="1" fill="rgb(37,12,37)" fill-rule="evenodd" />

</svg>